<?xml version="1.0" encoding="utf-8"?>
<!-- Generator: Adobe Illustrator 15.1.0, SVG Export Plug-In  -->
<!DOCTYPE svg PUBLIC "-//W3C//DTD SVG 1.1//EN" "http://www.w3.org/Graphics/SVG/1.1/DTD/svg11.dtd" [
	<!ENTITY ns_flows "http://ns.adobe.com/Flows/1.0/">
]>
<svg version="1.1"
	 xmlns="http://www.w3.org/2000/svg" xmlns:xlink="http://www.w3.org/1999/xlink" xmlns:a="http://ns.adobe.com/AdobeSVGViewerExtensions/3.0/"
	 x="0px" y="0px" width="224px" height="174px" viewBox="0 0 224 174" overflow="visible" enable-background="new 0 0 224 174"
	 xml:space="preserve">
<defs>
</defs>
<path fill="#71C7F0" d="M167.649,161.901c25.164-6.219,52.271-38.184,41.153-74.85c-11.711-32.256-37.958-60.771-73.22-81.9
	c47.627,33.553,76.047,90.698,49.734,122.404c-18.813,20.652-55.52,25.232-93.281,7.787C58.094,119.348,29.94,90.108,27.965,60.007
	c-3.487-33.765,31.376-54.494,73.432-36.122c5.442,2.15,10.497,4.706,15.164,7.538c14.29,9,26.655,21.426,30.798,35.357
	c2.83,8.799,3.554,18.343-5.064,22.793c-6.841-8.783-5.263-20.54-18.417-27.084c-15.067-7.276-27.498-4.272-36.512,3.111
	c-6.906,6.642-4.867,21.321,5.789,31.55c19.606,18.269,47.102,22.542,62.628,11.453c29.137-22.905-0.067-74.174-45.262-95.988
	C71.053-7.026,34.346-2.447,13.624,17.482C-0.389,32.236-3.35,54.279,3.625,77.015c15.262,50.601,81.572,94.346,137.355,97.018
	c55.784,2.668,83.121-21.206,83.113-70.195C224.102,145.401,193.637,162.313,167.649,161.901"/>
</svg>
